<?xml version="1.0" encoding="utf-8"?>
<!-- Generator: Adobe Illustrator 15.0.2, SVG Export Plug-In . SVG Version: 6.00 Build 0)  -->
<!DOCTYPE svg PUBLIC "-//W3C//DTD SVG 1.1//EN" "http://www.w3.org/Graphics/SVG/1.1/DTD/svg11.dtd">
<svg version="1.1" id="Layer_1" xmlns="http://www.w3.org/2000/svg" xmlns:xlink="http://www.w3.org/1999/xlink" x="0px" y="0px"
	 width="4em" height="4em" viewBox="0 0 40 40" enable-background="new 0 0 40 40" xml:space="preserve">
<g>
	<path fill-rule="evenodd" clip-rule="evenodd" fill="#FFFFFF" d="M20,38.5C9.799,38.5,1.5,30.202,1.5,20
		C1.5,9.799,9.799,1.5,20,1.5S38.5,9.799,38.5,20C38.5,30.202,30.201,38.5,20,38.5z"/>
	<path fill="#3FA9F5" d="M20,3c9.374,0,17,7.626,17,17c0,9.375-7.626,17-17,17S3,29.375,3,20C3,10.626,10.626,3,20,3 M20,0
		C8.955,0,0,8.954,0,20c0,11.045,8.955,20,20,20c11.046,0,20-8.955,20-20C40,8.954,31.046,0,20,0L20,0z"/>
</g>
<path fill-rule="evenodd" clip-rule="evenodd" fill="#F15F27" d="M5,22.721c0,0,6.098-5.32,8.361-5.443
	c2.336-0.126,2.705,10.262,8.975,10.127C28.238,27.279,35,14.746,35,14.746s-7.99,6.837-10.574,7.089
	c-2.58,0.254-6.146-9.368-9.344-9.242C11.887,12.721,5,22.721,5,22.721z"/>
</svg>
